<svg width="220" height="86" viewBox="0 0 220 86" fill="none" xmlns="http://www.w3.org/2000/svg">
<g filter="url(#filter0_d_3109_5725)">
<path d="M77.8804 28.1355H84.863L82.1055 41.4335H82.1945L96.6044 28.1355H105.855L90.6002 41.2112L100.34 59.8906H92.4682L85.2188 45.6142L80.371 49.8393L78.2807 59.8906H71.2981L77.8804 28.1355ZM106.197 43.8797C106.404 42.4268 106.849 41.226 107.531 40.2772C108.213 39.2987 109.043 38.513 110.022 37.92C111 37.327 112.097 36.9119 113.313 36.6747C114.528 36.4079 115.788 36.2744 117.093 36.2744C118.131 36.2744 119.213 36.3486 120.34 36.4968C121.466 36.6451 122.504 36.9416 123.453 37.3863C124.402 37.8014 125.173 38.4092 125.766 39.2098C126.388 39.9807 126.685 41.0184 126.655 42.323C126.655 43.4201 126.492 44.7099 126.166 46.1924L124.12 55.4431C124.001 55.8582 123.913 56.3771 123.853 56.9998C123.824 57.5928 123.809 58.1116 123.809 58.5564C123.809 58.9418 123.883 59.3866 124.031 59.8906H117.716V57.6224C116.856 58.6009 115.803 59.3273 114.558 59.8017C113.313 60.2464 112.023 60.4688 110.689 60.4688C109.443 60.4688 108.346 60.3057 107.398 59.9796C106.478 59.6534 105.707 59.2235 105.085 58.6898C104.462 58.1265 104.003 57.489 103.706 56.7774C103.41 56.0361 103.261 55.2652 103.261 54.4647C103.261 52.2409 104.017 50.4619 105.53 49.1277C107.071 47.7934 109.236 46.9633 112.023 46.6371C113.505 46.4592 114.795 46.3258 115.892 46.2368C116.989 46.1479 117.894 46.0145 118.605 45.8366C119.346 45.629 119.895 45.3473 120.251 44.9915C120.607 44.6061 120.784 44.0427 120.784 43.3015C120.784 42.7085 120.651 42.2341 120.384 41.8783C120.117 41.5225 119.776 41.2408 119.361 41.0333C118.976 40.8257 118.546 40.6923 118.071 40.633C117.627 40.544 117.197 40.4996 116.782 40.4996C115.655 40.4996 114.647 40.7812 113.757 41.3446C112.868 41.8783 112.319 42.7233 112.112 43.8797H106.197ZM119.539 48.8608C118.739 49.3352 117.879 49.6317 116.96 49.7503C116.04 49.8393 115.121 49.9134 114.202 49.9727C113.609 50.032 113.031 50.1358 112.468 50.284C111.904 50.4026 111.4 50.5954 110.956 50.8622C110.54 51.1291 110.199 51.4997 109.933 51.9741C109.666 52.4188 109.532 52.997 109.532 53.7086C109.532 54.5685 109.873 55.2208 110.555 55.6655C111.267 56.0806 112.082 56.2882 113.001 56.2882C113.98 56.2882 114.795 56.1399 115.447 55.8434C116.129 55.5173 116.693 55.117 117.138 54.6426C117.612 54.1385 117.983 53.5752 118.249 52.9525C118.516 52.3299 118.739 51.7072 118.917 51.0846L119.539 48.8608ZM133.336 36.8971H139.34L138.406 41.0333L138.495 41.1222C139.207 39.5211 140.274 38.3203 141.697 37.5197C143.15 36.6895 144.722 36.2744 146.412 36.2744C147.064 36.2744 147.716 36.3189 148.369 36.4079L147.079 42.5454C146.634 42.4565 146.189 42.3675 145.745 42.2786C145.3 42.1896 144.855 42.1451 144.41 42.1451C143.195 42.1451 142.157 42.3527 141.297 42.7678C140.467 43.1829 139.755 43.7462 139.162 44.4578C138.599 45.1694 138.139 45.9848 137.784 46.9039C137.457 47.7934 137.191 48.7274 136.983 49.7059L134.848 59.8906H128.577L133.336 36.8971ZM149.021 43.8797C149.229 42.4268 149.673 41.226 150.355 40.2772C151.037 39.2987 151.868 38.513 152.846 37.92C153.824 37.327 154.922 36.9119 156.137 36.6747C157.353 36.4079 158.613 36.2744 159.918 36.2744C160.955 36.2744 162.037 36.3486 163.164 36.4968C164.291 36.6451 165.329 36.9416 166.277 37.3863C167.226 37.8014 167.997 38.4092 168.59 39.2098C169.213 39.9807 169.509 41.0184 169.48 42.323C169.48 43.4201 169.317 44.7099 168.99 46.1924L166.945 55.4431C166.826 55.8582 166.737 56.3771 166.678 56.9998C166.648 57.5928 166.633 58.1116 166.633 58.5564C166.633 58.9418 166.707 59.3866 166.856 59.8906H160.54V57.6224C159.68 58.6009 158.628 59.3273 157.382 59.8017C156.137 60.2464 154.847 60.4688 153.513 60.4688C152.268 60.4688 151.171 60.3057 150.222 59.9796C149.303 59.6534 148.532 59.2235 147.909 58.6898C147.287 58.1265 146.827 57.489 146.531 56.7774C146.234 56.0361 146.086 55.2652 146.086 54.4647C146.086 52.2409 146.842 50.4619 148.354 49.1277C149.896 47.7934 152.06 46.9633 154.847 46.6371C156.33 46.4592 157.62 46.3258 158.717 46.2368C159.814 46.1479 160.718 46.0145 161.43 45.8366C162.171 45.629 162.719 45.3473 163.075 44.9915C163.431 44.6061 163.609 44.0427 163.609 43.3015C163.609 42.7085 163.476 42.2341 163.209 41.8783C162.942 41.5225 162.601 41.2408 162.186 41.0333C161.8 40.8257 161.37 40.6923 160.896 40.633C160.451 40.544 160.021 40.4996 159.606 40.4996C158.479 40.4996 157.471 40.7812 156.582 41.3446C155.692 41.8783 155.144 42.7233 154.936 43.8797H149.021ZM162.364 48.8608C161.563 49.3352 160.703 49.6317 159.784 49.7503C158.865 49.8393 157.946 49.9134 157.027 49.9727C156.434 50.032 155.855 50.1358 155.292 50.284C154.729 50.4026 154.225 50.5954 153.78 50.8622C153.365 51.1291 153.024 51.4997 152.757 51.9741C152.49 52.4188 152.357 52.997 152.357 53.7086C152.357 54.5685 152.698 55.2208 153.38 55.6655C154.091 56.0806 154.907 56.2882 155.826 56.2882C156.804 56.2882 157.62 56.1399 158.272 55.8434C158.954 55.5173 159.517 55.117 159.962 54.6426C160.436 54.1385 160.807 53.5752 161.074 52.9525C161.341 52.3299 161.563 51.7072 161.741 51.0846L162.364 48.8608ZM183.321 33.3391H176.961L178.117 28.1355H184.477L183.321 33.3391ZM167.132 62.6481C167.518 62.6777 167.903 62.6925 168.289 62.6925C168.644 62.7222 169.015 62.737 169.4 62.737C169.845 62.737 170.201 62.5739 170.468 62.2478C170.735 61.9513 170.957 61.5807 171.135 61.1359C171.313 60.6912 171.446 60.2464 171.535 59.8017C171.624 59.3273 171.713 58.9418 171.802 58.6453L176.338 36.8971H182.654L177.628 60.6912C177.361 61.9068 177.035 62.9742 176.65 63.8934C176.264 64.8125 175.745 65.5686 175.093 66.1616C174.441 66.7546 173.64 67.1993 172.692 67.4958C171.743 67.7923 170.557 67.9406 169.134 67.9406C168.63 67.9406 168.125 67.9109 167.621 67.8516C167.088 67.7923 166.569 67.7479 166.065 67.7182L167.132 62.6481ZM194.831 33.3391H188.471L189.627 28.1355H195.987L194.831 33.3391ZM187.759 36.8971H194.119L189.227 59.8906H182.911L187.759 36.8971Z" fill="#EFEFF0"/>
<rect x="142.658" y="0.128418" width="54.923" height="22.5576" fill="#D2EA41"/>
<path d="M147.479 20.1099C147.31 20.1099 147.15 20.0848 146.999 20.0347C146.855 19.9845 146.733 19.9092 146.632 19.8088C146.532 19.7147 146.46 19.5955 146.416 19.4512C146.391 19.3759 146.378 19.2912 146.378 19.1971C146.378 19.1156 146.388 19.0309 146.406 18.9431C146.475 18.5855 146.673 18.3 146.999 18.0867C147.3 17.8922 147.624 17.795 147.969 17.795C148.132 17.795 148.289 17.8201 148.439 17.8703C148.59 17.9205 148.718 17.9926 148.825 18.0867C148.932 18.1808 149.007 18.3 149.051 18.4443C149.076 18.5196 149.088 18.6043 149.088 18.6984C149.088 18.7737 149.079 18.8552 149.06 18.9431C148.991 19.3132 148.79 19.6018 148.458 19.8088C148.157 20.0096 147.831 20.1099 147.479 20.1099ZM150.519 20.1099C150.155 20.1099 149.873 20.0096 149.672 19.8088C149.502 19.6457 149.418 19.4481 149.418 19.216C149.418 19.1281 149.427 19.0372 149.446 18.9431C149.515 18.5855 149.713 18.3 150.039 18.0867C150.34 17.8922 150.663 17.795 151.008 17.795C151.359 17.795 151.645 17.8922 151.864 18.0867C152.04 18.2435 152.128 18.4474 152.128 18.6984C152.128 18.7737 152.119 18.8552 152.1 18.9431C152.031 19.3132 151.83 19.6018 151.497 19.8088C151.196 20.0096 150.87 20.1099 150.519 20.1099ZM159.402 13.6168C159.647 13.9618 160.052 14.1343 160.616 14.1343C160.936 14.1343 161.184 14.2473 161.36 14.4731C161.541 14.699 161.598 14.9719 161.529 15.2918C161.46 15.6118 161.287 15.8847 161.011 16.1105C160.742 16.3364 160.447 16.4493 160.127 16.4493H160.099C159.383 16.443 158.775 16.3332 158.273 16.1199C157.759 15.9004 157.351 15.5961 157.05 15.2071C156.742 14.8182 156.548 14.3571 156.466 13.8238C156.391 13.2906 156.419 12.7071 156.551 12.0735L157.266 8.71397C156.701 8.71397 156.212 8.88336 155.798 9.22213C155.39 9.5609 155.108 10.1098 154.951 10.8689L153.765 16.4493H148.044C147.329 16.4493 146.711 16.3552 146.19 16.167C145.676 15.9788 145.262 15.6965 144.948 15.3201C144.634 14.9436 144.437 14.4794 144.355 13.9273C144.267 13.369 144.302 12.7197 144.459 11.9794L145.39 7.55649H149.183L148.693 9.87145H147.583L147.14 11.9794C146.977 12.7385 147.024 13.2874 147.282 13.6262C147.551 13.965 147.969 14.1343 148.533 14.1343H151.563L152.26 10.8689C152.417 10.1287 152.658 9.47935 152.984 8.921C153.311 8.36265 153.709 7.89527 154.179 7.51885C154.65 7.14871 155.183 6.86954 155.779 6.68133C156.381 6.49312 157.04 6.39902 157.755 6.39902H160.456L159.242 12.1111C159.098 12.7698 159.151 13.2717 159.402 13.6168ZM162.837 16.4493H160.136L160.626 14.1249H163.326C163.722 14.1249 164.095 14.0591 164.446 13.9273C164.797 13.7956 165.111 13.6105 165.387 13.3721C165.663 13.1337 165.898 12.8483 166.093 12.5158C166.287 12.1833 166.425 11.8163 166.507 11.4147C166.563 11.1513 166.592 10.9035 166.592 10.6713C166.592 10.1757 166.469 9.76793 166.225 9.44798C165.855 8.95864 165.271 8.71397 164.474 8.71397L164.098 10.4831H161.397L162.15 6.96364C163.016 6.58722 163.957 6.39902 164.973 6.39902C165.757 6.39902 166.451 6.51194 167.053 6.73779C167.661 6.95737 168.154 7.28359 168.53 7.71647C168.907 8.14307 169.158 8.66692 169.283 9.288C169.34 9.55777 169.368 9.84635 169.368 10.1538C169.368 10.549 169.321 10.9693 169.227 11.4147C169.057 12.2178 168.775 12.933 168.38 13.5603C167.984 14.1877 167.508 14.7147 166.949 15.1413C166.397 15.5616 165.77 15.8847 165.067 16.1105C164.365 16.3364 163.621 16.4493 162.837 16.4493ZM161.002 20.1099C160.833 20.1099 160.676 20.0848 160.531 20.0347C160.387 19.9845 160.265 19.9092 160.164 19.8088C160.058 19.7147 159.982 19.5955 159.939 19.4512C159.913 19.3759 159.901 19.2912 159.901 19.1971C159.901 19.1156 159.91 19.0309 159.929 18.9431C159.998 18.5855 160.196 18.3 160.522 18.0867C160.823 17.8922 161.149 17.795 161.501 17.795C161.658 17.795 161.811 17.8201 161.962 17.8703C162.112 17.9205 162.241 17.9926 162.348 18.0867C162.53 18.2435 162.621 18.4474 162.621 18.6984C162.621 18.7737 162.611 18.8552 162.592 18.9431C162.548 19.1375 162.473 19.3069 162.366 19.4512C162.26 19.5955 162.131 19.7147 161.981 19.8088C161.836 19.9092 161.676 19.9845 161.501 20.0347C161.331 20.0848 161.165 20.1099 161.002 20.1099ZM172.915 16.4399H169.424L172.05 4.07465H174.581L172.445 14.1249H173.405L172.915 16.4399ZM180.472 16.4493C179.801 16.443 179.224 16.3458 178.741 16.1576C178.602 16.6281 178.414 17.0704 178.176 17.4844C177.868 18.0177 177.48 18.4788 177.009 18.8678C176.545 19.2567 176.005 19.561 175.39 19.7806C174.794 19.9939 174.133 20.1037 173.405 20.1099L173.894 17.795C174.459 17.795 174.939 17.6225 175.334 17.2774C175.723 16.9386 175.99 16.4399 176.134 15.7812L177.235 10.5866H176.303L176.698 8.71397H180.331L179.616 12.1111C179.471 12.7698 179.525 13.2717 179.776 13.6168C180.02 13.9618 180.425 14.1343 180.99 14.1343C181.31 14.1343 181.56 14.2473 181.742 14.4731C181.924 14.699 181.981 14.9719 181.912 15.2918C181.843 15.6118 181.67 15.8847 181.394 16.1105C181.118 16.3364 180.82 16.4493 180.5 16.4493H180.472ZM184.895 16.4493H180.5L180.99 14.1343H185.384C185.779 14.1343 186.153 14.0685 186.504 13.9367C186.855 13.7987 187.169 13.6136 187.445 13.3815C187.721 13.1431 187.956 12.8577 188.151 12.5252C188.345 12.1864 188.483 11.8163 188.565 11.4147C188.621 11.1575 188.65 10.9129 188.65 10.6807C188.65 10.1914 188.527 9.78048 188.283 9.44798C187.913 8.95864 187.329 8.71397 186.532 8.71397H183.832L183.267 6.39902L195.707 -4.29153e-05L195.086 2.92659L188.17 6.48371C189.217 6.65937 190.024 7.07029 190.588 7.71647C190.965 8.14307 191.216 8.66692 191.341 9.288C191.397 9.55777 191.426 9.84635 191.426 10.1538C191.426 10.549 191.379 10.9693 191.285 11.4147C191.109 12.2178 190.823 12.933 190.428 13.5603C190.039 14.1877 189.566 14.7147 189.007 15.1413C188.449 15.5616 187.818 15.8847 187.116 16.1105C186.419 16.3364 185.679 16.4493 184.895 16.4493Z" fill="black"/>
<path d="M205.704 33.7544V30.5356H204.439V29.9355H207.679V30.5356H206.414V33.7544H205.704ZM208.212 33.7544V29.9355H208.795L210.465 32.7233H210.159L211.801 29.9355H212.385L212.391 33.7544H211.72L211.714 30.9884H211.856L210.459 33.3179H210.143L208.724 30.9884H208.888V33.7544H208.212Z" fill="#EFEFF0"/>
<path d="M62.4522 42.592C61.0139 42.0006 59.5014 41.4824 57.923 41.0383C53.435 39.7556 48.4617 39.0488 43.233 39.0488C38.0043 39.0488 33.032 39.7556 28.5358 41.0383C26.9573 41.4824 25.4449 41.9996 24.0065 42.592C23.7932 43.6522 23.6943 44.7454 23.6943 45.8715C23.6943 46.0519 23.6943 46.2249 23.7108 46.4062C24.9523 45.5263 26.3 44.9431 27.7301 44.6968C28.2153 44.6144 28.7161 44.5732 29.2261 44.5732C35.7118 44.5732 41.0302 51.6101 41.6144 60.5944C41.6473 60.989 41.6638 61.3919 41.6638 61.7947C42.757 62.0904 43.8089 62.2305 44.8041 62.2635V62.2552C44.8041 61.6967 44.8206 61.1456 44.8536 60.5944C45.445 51.6101 50.7634 44.5732 57.2418 44.5732C57.7436 44.5732 58.2361 44.6144 58.7296 44.6968C60.1597 44.9431 61.5165 45.5272 62.7489 46.4062C62.7653 46.2249 62.7653 46.0528 62.7653 45.8715C62.7653 44.7454 62.6665 43.6522 62.4531 42.592H62.4522Z" fill="#0F1314"/>
<path d="M62.455 41.2688C61.0121 40.682 59.4996 40.1619 57.9248 39.717C53.4332 38.4398 48.459 37.7266 43.2349 37.7266C38.0108 37.7266 33.0357 38.4398 28.5367 39.717C26.9619 40.1628 25.4485 40.682 24.0065 41.2688C23.796 42.3309 23.6943 43.4295 23.6943 44.5511C23.6943 44.7296 23.6943 44.9072 23.7099 45.0857C24.9496 44.2096 26.2991 43.6227 27.7337 43.3773C28.2171 43.2958 28.7161 43.251 29.2233 43.251C35.7109 43.251 41.0284 50.2915 41.6134 59.2776C41.6528 59.827 41.6684 60.3763 41.6684 60.9339C41.6684 61.6617 41.6372 62.3823 41.575 63.0872C42.1207 63.1394 42.6746 63.1614 43.2358 63.1614C43.797 63.1614 44.3509 63.1394 44.8966 63.0872C44.8343 62.3813 44.8032 61.6617 44.8032 60.9339C44.8032 60.3772 44.8188 59.827 44.8581 59.2776C45.4432 50.2915 50.7607 43.251 57.2409 43.251C57.7481 43.251 58.2389 43.2958 58.7305 43.3773C60.1579 43.6227 61.5138 44.2086 62.7544 45.0857C62.7699 44.9072 62.7699 44.7296 62.7699 44.5511C62.7699 43.4295 62.6683 42.3309 62.4577 41.2688H62.455Z" fill="white"/>
<path d="M47.3119 48.2415C49.4654 46.088 49.4654 42.5965 47.3119 40.4431C45.1585 38.2896 41.667 38.2896 39.5135 40.4431C37.36 42.5965 37.36 46.088 39.5135 48.2415C41.667 50.395 45.1585 50.395 47.3119 48.2415Z" fill="black"/>
<path d="M43.2306 40.0849C45.8976 40.0849 48.0601 42.2474 48.0601 44.9144C48.0601 45.3786 47.9906 45.8272 47.8688 46.252C48.1728 45.6193 48.3476 44.9135 48.3476 44.1655C48.3476 41.4985 46.1851 39.3359 43.5181 39.3359C41.3153 39.3359 39.4613 40.8118 38.8809 42.8278C39.66 41.2073 41.3126 40.0858 43.2306 40.0858V40.0849Z" fill="#404040"/>
<path opacity="0.4" d="M47.0041 44.1656C47.0041 46.091 45.4431 47.652 43.5177 47.652C41.5923 47.652 40.0312 46.091 40.0312 44.1656C40.0312 42.2402 41.5923 40.6792 43.5177 40.6792C45.4431 40.6792 47.0041 42.2402 47.0041 44.1656Z" fill="black"/>
<path d="M46.6508 44.1657C46.6508 45.8961 45.2482 47.2987 43.5178 47.2987C41.7874 47.2987 40.3848 45.8961 40.3848 44.1657C40.3848 42.4353 41.7874 41.0327 43.5178 41.0327C45.2482 41.0327 46.6508 42.4353 46.6508 44.1657Z" fill="white"/>
<g style="mix-blend-mode:multiply" opacity="0.5">
<path d="M44.8959 63.0874C44.8336 62.3815 44.8025 61.6619 44.8025 60.934C44.8025 60.8571 44.8098 60.783 44.8098 60.7061C44.4134 60.7775 44.0151 60.8461 43.6095 60.8883C43.0419 60.9459 42.4752 60.9789 41.9002 60.9789C41.8224 60.9789 41.7455 60.9734 41.6677 60.9725C41.6668 61.6875 41.6365 62.3952 41.5752 63.0883C42.1209 63.1405 42.6748 63.1625 43.236 63.1625C43.7972 63.1625 44.3511 63.1405 44.8968 63.0883L44.8959 63.0874Z" fill="#3A3A3A"/>
<path d="M25.5236 44.0564C25.5328 43.7991 25.5337 43.541 25.5575 43.2883C25.6298 42.3398 25.7909 41.4123 26.0226 40.5142C25.3377 40.7531 24.663 41.0012 24.0065 41.2686C23.796 42.3306 23.6943 43.4293 23.6943 44.5508C23.6943 44.7293 23.6943 44.907 23.7099 45.0855C24.2904 44.6753 24.8974 44.3347 25.5236 44.0564Z" fill="#3A3A3A"/>
</g>
<path d="M63.4975 39.653C61.7955 30.0104 53.3697 22.686 43.2346 22.686C33.0995 22.686 24.6737 30.0104 22.9634 39.653C22.7419 40.8285 22.6348 42.0453 22.6348 43.2859C22.6348 43.4827 22.6348 43.6805 22.6512 43.8773C22.9387 54.3905 31.1182 62.9399 41.4841 63.8033C42.059 63.861 42.6431 63.8857 43.2346 63.8857C43.826 63.8857 44.4102 63.861 44.9851 63.8033C55.3509 62.9399 63.5213 54.3915 63.8097 43.8773C63.8262 43.6805 63.8262 43.4827 63.8262 43.2859C63.8262 42.0444 63.7191 40.8276 63.4975 39.653ZM59.6256 43.2859C59.6256 51.7693 53.1893 58.7312 44.9439 59.5863C44.3763 59.644 43.8096 59.6769 43.2346 59.6769C42.6596 59.6769 42.0837 59.644 41.5243 59.5863C33.2716 58.7312 26.8353 51.7684 26.8353 43.2859C26.8353 42.8501 26.8518 42.4143 26.893 41.9867C27.0001 40.5813 27.2876 39.2163 27.7399 37.9345C29.9509 31.5064 36.0503 26.8948 43.2346 26.8948C50.4189 26.8948 56.51 31.5064 58.7211 37.9345C59.1734 39.2172 59.4608 40.5813 59.568 41.9867C59.6092 42.4143 59.6256 42.8501 59.6256 43.2859Z" fill="white"/>
<g style="mix-blend-mode:multiply" opacity="0.3">
<path d="M60.0094 41.916C60.0094 41.4802 59.9929 41.0444 59.9517 40.6168C59.8446 39.2114 59.5571 37.8463 59.1048 36.5646C56.8938 30.1365 50.7944 25.5249 43.6183 25.5249C36.4423 25.5249 30.3347 30.1356 28.1227 36.5646C27.9332 37.1029 27.7794 37.6577 27.6484 38.2217C27.6796 38.1265 27.7061 38.0285 27.7391 37.9342C29.9501 31.5062 36.0495 26.8946 43.2338 26.8946C50.4181 26.8946 56.5093 31.5062 58.7203 37.9342C59.1726 39.2169 59.4601 40.5811 59.5672 41.9865C59.6084 42.414 59.6249 42.8498 59.6249 43.2856C59.6249 44.5775 59.4591 45.8281 59.1772 47.0339C59.7073 45.4225 60.0085 43.7058 60.0085 41.916H60.0094Z" fill="#BBBBBB"/>
<path d="M45.3687 62.4335C44.7938 62.4912 44.2096 62.5159 43.6182 62.5159C43.0268 62.5159 42.4426 62.4912 41.8677 62.4335C31.5018 61.5701 23.3223 53.0207 23.0349 42.5075C23.0184 42.3097 23.0184 42.1129 23.0184 41.9161C23.0184 40.6746 23.1255 39.4578 23.3471 38.2832C23.4203 37.8712 23.5219 37.4692 23.619 37.0664C23.3526 37.9096 23.12 38.7675 22.9634 39.6528C22.7419 40.8284 22.6348 42.0452 22.6348 43.2857C22.6348 43.4826 22.6348 43.6803 22.6512 43.8772C22.9387 54.3904 31.1182 62.9398 41.4841 63.8032C42.059 63.8608 42.6431 63.8855 43.2346 63.8855C43.826 63.8855 44.4102 63.8608 44.9851 63.8032C53.833 63.0661 61.064 56.7214 63.1752 48.3432C60.6547 56.0375 53.7286 61.7368 45.3678 62.4335H45.3687Z" fill="#BBBBBB"/>
</g>
<g opacity="0.2">
<path d="M27.703 38.0493C27.606 38.2919 27.5044 38.5318 27.4192 38.7799C26.9669 40.0626 26.6794 41.4268 26.5723 42.8321C26.5311 43.2597 26.5146 43.6955 26.5146 44.1313C26.5146 52.6148 32.9509 59.5766 41.2046 60.4317C41.7631 60.4894 42.339 60.5224 42.9149 60.5224C43.4907 60.5224 44.0575 60.4894 44.6242 60.4317C51.0074 59.7698 56.291 55.4401 58.3592 49.5861C56.0978 55.0089 51.0165 58.9577 44.9446 59.5876C44.377 59.6453 43.8103 59.6782 43.2353 59.6782C42.6603 59.6782 42.0845 59.6453 41.5251 59.5876C33.2723 58.7325 26.836 51.7697 26.836 43.2872C26.836 42.8514 26.8525 42.4156 26.8937 41.988C26.9971 40.6238 27.2746 39.3 27.7039 38.0502L27.703 38.0493Z" fill="white"/>
<path d="M63.497 39.653C61.795 30.0104 53.3693 22.686 43.2341 22.686C34.2389 22.686 26.6023 28.4604 23.7998 36.498C26.8303 28.9054 34.2389 23.5311 42.9146 23.5311C53.0497 23.5311 61.4755 30.8555 63.1775 40.498C63.3991 41.6736 63.5062 42.8903 63.5062 44.1309C63.5062 44.3287 63.5062 44.5255 63.4897 44.7233C63.4256 47.0625 62.9523 49.2964 62.1704 51.3784C63.1583 49.0648 63.7369 46.5351 63.8102 43.8791C63.8266 43.6823 63.8266 43.4845 63.8266 43.2877C63.8266 42.0462 63.7195 40.8294 63.498 39.6548L63.497 39.653Z" fill="white"/>
</g>
<g opacity="0.3">
<path d="M59.6619 43.1679C59.6619 42.7321 59.6454 42.2963 59.6042 41.8687C59.4971 40.4634 59.2096 39.0983 58.7573 37.8165C56.5463 31.3885 50.4469 26.7769 43.2709 26.7769C36.0948 26.7769 29.9872 31.3885 27.7752 37.8165C27.6608 38.1406 27.5573 38.4702 27.4648 38.8035C27.5491 38.5105 27.6388 38.2203 27.7386 37.9346C29.9496 31.5066 36.049 26.895 43.2333 26.895C50.4176 26.895 56.5088 31.5066 58.7198 37.9346C59.1721 39.2173 59.4596 40.5815 59.5667 41.9869C59.6079 42.4144 59.6244 42.8502 59.6244 43.286C59.6244 44.8635 59.4001 46.387 58.9853 47.829C59.423 46.3513 59.661 44.7875 59.661 43.167L59.6619 43.1679Z" fill="#242424"/>
<path d="M45.0217 63.6854C44.4468 63.7431 43.8627 63.7678 43.2712 63.7678C42.6798 63.7678 42.0956 63.7431 41.5207 63.6854C31.1549 62.822 22.9753 54.2736 22.6879 43.7594C22.6714 43.5617 22.6714 43.3648 22.6714 43.168C22.6714 41.9265 22.7785 40.7097 23.0001 39.5351C23.1063 38.9363 23.239 38.3476 23.3956 37.7681C23.2244 38.3861 23.077 39.0132 22.9634 39.6532C22.7419 40.8287 22.6348 42.0455 22.6348 43.2861C22.6348 43.4829 22.6348 43.6807 22.6512 43.8775C22.9387 54.3908 31.1182 62.9401 41.4841 63.8035C42.059 63.8612 42.6431 63.8859 43.2346 63.8859C43.826 63.8859 44.4102 63.8612 44.9851 63.8035C53.432 63.1004 60.4185 57.2921 62.8722 49.477C60.3855 57.2326 53.4256 62.9859 45.0217 63.6854Z" fill="#242424"/>
</g>
<path d="M73.9579 66.4747H75.5232L78.7597 74.8779H77.1827L76.3941 72.6535H73.0399L72.2514 74.8779H70.7331L73.9579 66.4747ZM73.4401 71.5355H76.0057L74.7464 67.9223H74.7111L73.4401 71.5355ZM79.407 66.4747H80.7486V74.8779H79.407V66.4747ZM82.2458 66.4747H83.5875V74.8779H82.2458V66.4747ZM84.9199 71.0412H88.3447V72.3122H84.9199V71.0412ZM89.659 66.4747H91.0007V67.7458H89.659V66.4747ZM89.659 68.7933H91.0007V74.8779H89.659V68.7933ZM92.4626 68.7933H93.7337V69.6877L93.7572 69.7112C93.9612 69.3739 94.228 69.111 94.5575 68.9227C94.887 68.7266 95.2519 68.6285 95.652 68.6285C96.319 68.6285 96.8447 68.8011 97.2291 69.1463C97.6136 69.4916 97.8058 70.0094 97.8058 70.6999V74.8779H96.4641V71.0529C96.4484 70.5743 96.3464 70.2291 96.1581 70.0172C95.9698 69.7976 95.6756 69.6877 95.2754 69.6877C95.0479 69.6877 94.8439 69.7309 94.6634 69.8172C94.483 69.8956 94.33 70.0094 94.2044 70.1585C94.0789 70.2997 93.9808 70.4684 93.9102 70.6646C93.8396 70.8607 93.8043 71.0686 93.8043 71.2883V74.8779H92.4626V68.7933ZM99.0912 71.0412H102.516V72.3122H99.0912V71.0412ZM106.584 75.0427C106.098 75.0427 105.662 74.9642 105.278 74.8073C104.901 74.6425 104.58 74.4189 104.313 74.1365C104.054 73.854 103.854 73.5166 103.713 73.1243C103.579 72.732 103.513 72.3005 103.513 71.8297C103.513 71.3668 103.579 70.9392 103.713 70.5469C103.854 70.1546 104.054 69.8172 104.313 69.5347C104.58 69.2522 104.901 69.0326 105.278 68.8756C105.662 68.7109 106.098 68.6285 106.584 68.6285C107.071 68.6285 107.502 68.7109 107.879 68.8756C108.263 69.0326 108.585 69.2522 108.844 69.5347C109.111 69.8172 109.311 70.1546 109.444 70.5469C109.585 70.9392 109.656 71.3668 109.656 71.8297C109.656 72.3005 109.585 72.732 109.444 73.1243C109.311 73.5166 109.111 73.854 108.844 74.1365C108.585 74.4189 108.263 74.6425 107.879 74.8073C107.502 74.9642 107.071 75.0427 106.584 75.0427ZM106.584 73.9835C106.883 73.9835 107.141 73.9207 107.361 73.7952C107.581 73.6696 107.761 73.5049 107.902 73.3009C108.044 73.0969 108.146 72.8693 108.208 72.6182C108.279 72.3593 108.314 72.0965 108.314 71.8297C108.314 71.5708 108.279 71.3119 108.208 71.0529C108.146 70.794 108.044 70.5665 107.902 70.3703C107.761 70.1663 107.581 70.0016 107.361 69.876C107.141 69.7505 106.883 69.6877 106.584 69.6877C106.286 69.6877 106.027 69.7505 105.808 69.876C105.588 70.0016 105.407 70.1663 105.266 70.3703C105.125 70.5665 105.019 70.794 104.948 71.0529C104.886 71.3119 104.854 71.5708 104.854 71.8297C104.854 72.0965 104.886 72.3593 104.948 72.6182C105.019 72.8693 105.125 73.0969 105.266 73.3009C105.407 73.5049 105.588 73.6696 105.808 73.7952C106.027 73.9207 106.286 73.9835 106.584 73.9835ZM110.772 68.7933H112.043V69.6877L112.066 69.7112C112.27 69.3739 112.537 69.111 112.866 68.9227C113.196 68.7266 113.561 68.6285 113.961 68.6285C114.628 68.6285 115.154 68.8011 115.538 69.1463C115.923 69.4916 116.115 70.0094 116.115 70.6999V74.8779H114.773V71.0529C114.757 70.5743 114.655 70.2291 114.467 70.0172C114.279 69.7976 113.985 69.6877 113.584 69.6877C113.357 69.6877 113.153 69.7309 112.972 69.8172C112.792 69.8956 112.639 70.0094 112.513 70.1585C112.388 70.2997 112.29 70.4684 112.219 70.6646C112.149 70.8607 112.113 71.0686 112.113 71.2883V74.8779H110.772V68.7933ZM121.708 71.3001C121.692 71.0882 121.645 70.8842 121.566 70.6881C121.496 70.4919 121.394 70.3232 121.26 70.182C121.135 70.0329 120.978 69.9152 120.79 69.8289C120.609 69.7348 120.405 69.6877 120.178 69.6877C119.942 69.6877 119.727 69.7309 119.53 69.8172C119.342 69.8956 119.177 70.0094 119.036 70.1585C118.903 70.2997 118.793 70.4684 118.707 70.6646C118.628 70.8607 118.585 71.0726 118.577 71.3001H121.708ZM118.577 72.1828C118.577 72.4182 118.608 72.6457 118.671 72.8654C118.742 73.0851 118.844 73.2773 118.977 73.4421C119.111 73.6069 119.279 73.7402 119.483 73.8422C119.687 73.9364 119.931 73.9835 120.213 73.9835C120.605 73.9835 120.919 73.9011 121.155 73.7363C121.398 73.5637 121.578 73.3087 121.696 72.9713H122.967C122.896 73.3009 122.775 73.5951 122.602 73.854C122.43 74.1129 122.222 74.3326 121.978 74.5131C121.735 74.6857 121.461 74.8152 121.155 74.9015C120.856 74.9956 120.543 75.0427 120.213 75.0427C119.734 75.0427 119.311 74.9642 118.942 74.8073C118.573 74.6504 118.259 74.4307 118 74.1482C117.749 73.8658 117.557 73.5284 117.424 73.1361C117.298 72.7438 117.235 72.3122 117.235 71.8415C117.235 71.4099 117.302 71.0019 117.435 70.6175C117.577 70.2252 117.773 69.8839 118.024 69.5936C118.283 69.2954 118.593 69.06 118.954 68.8874C119.315 68.7148 119.723 68.6285 120.178 68.6285C120.656 68.6285 121.084 68.7305 121.461 68.9345C121.845 69.1306 122.163 69.3935 122.414 69.723C122.665 70.0526 122.845 70.4331 122.955 70.8646C123.073 71.2883 123.104 71.7277 123.049 72.1828H118.577ZM127.38 68.7933H128.651V69.6171H128.675C128.863 69.264 129.126 69.0129 129.463 68.8639C129.801 68.7069 130.166 68.6285 130.558 68.6285C131.037 68.6285 131.452 68.7148 131.805 68.8874C132.166 69.0522 132.465 69.2836 132.7 69.5818C132.935 69.8721 133.112 70.2134 133.23 70.6057C133.347 70.998 133.406 71.4178 133.406 71.865C133.406 72.273 133.351 72.6692 133.241 73.0537C133.139 73.4382 132.978 73.7795 132.759 74.0776C132.547 74.3679 132.276 74.6033 131.947 74.7838C131.617 74.9564 131.229 75.0427 130.782 75.0427C130.585 75.0427 130.389 75.0231 130.193 74.9839C129.997 74.9525 129.809 74.8975 129.628 74.8191C129.448 74.7406 129.279 74.6425 129.122 74.5249C128.973 74.3993 128.847 74.2542 128.745 74.0894H128.722V77.1258H127.38V68.7933ZM132.064 71.8415C132.064 71.5669 132.029 71.3001 131.958 71.0412C131.888 70.7822 131.782 70.5547 131.641 70.3586C131.499 70.1546 131.323 69.9937 131.111 69.876C130.899 69.7505 130.656 69.6877 130.381 69.6877C129.816 69.6877 129.389 69.8839 129.099 70.2762C128.816 70.6685 128.675 71.1902 128.675 71.8415C128.675 72.1475 128.71 72.4339 128.781 72.7006C128.859 72.9595 128.973 73.1832 129.122 73.3715C129.271 73.5598 129.448 73.7089 129.652 73.8187C129.864 73.9285 130.107 73.9835 130.381 73.9835C130.687 73.9835 130.946 73.9207 131.158 73.7952C131.37 73.6696 131.543 73.5088 131.676 73.3126C131.817 73.1086 131.915 72.8811 131.97 72.63C132.033 72.3711 132.064 72.1082 132.064 71.8415ZM134.575 66.4747H135.917V74.8779H134.575V66.4747ZM142.475 73.5245C142.475 73.6892 142.494 73.8069 142.534 73.8775C142.581 73.9482 142.667 73.9835 142.792 73.9835C142.832 73.9835 142.879 73.9835 142.934 73.9835C142.989 73.9835 143.051 73.9756 143.122 73.9599V74.8897C143.075 74.9054 143.012 74.9211 142.934 74.9368C142.863 74.9603 142.789 74.9799 142.71 74.9956C142.632 75.0113 142.553 75.0231 142.475 75.0309C142.396 75.0388 142.33 75.0427 142.275 75.0427C142 75.0427 141.772 74.9878 141.592 74.8779C141.412 74.7681 141.294 74.5759 141.239 74.3012C140.972 74.5602 140.643 74.7485 140.25 74.8662C139.866 74.9839 139.493 75.0427 139.132 75.0427C138.858 75.0427 138.595 75.0035 138.344 74.925C138.093 74.8544 137.869 74.7485 137.673 74.6072C137.485 74.4582 137.332 74.2738 137.214 74.0541C137.104 73.8265 137.049 73.5637 137.049 73.2655C137.049 72.8889 137.116 72.5829 137.249 72.3476C137.39 72.1122 137.571 71.9278 137.791 71.7944C138.018 71.661 138.269 71.5669 138.544 71.5119C138.826 71.4492 139.109 71.4021 139.391 71.3707C139.634 71.3236 139.866 71.2922 140.086 71.2766C140.305 71.253 140.497 71.2177 140.662 71.1706C140.835 71.1236 140.968 71.0529 141.062 70.9588C141.164 70.8568 141.215 70.7077 141.215 70.5116C141.215 70.3389 141.172 70.1977 141.086 70.0879C141.007 69.978 140.905 69.8956 140.78 69.8407C140.662 69.7779 140.529 69.7387 140.38 69.723C140.231 69.6995 140.089 69.6877 139.956 69.6877C139.579 69.6877 139.27 69.7662 139.026 69.9231C138.783 70.08 138.646 70.3232 138.614 70.6528H137.273C137.296 70.2605 137.39 69.9349 137.555 69.6759C137.72 69.417 137.928 69.2091 138.179 69.0522C138.438 68.8952 138.728 68.7854 139.05 68.7226C139.372 68.6599 139.701 68.6285 140.038 68.6285C140.337 68.6285 140.631 68.6599 140.921 68.7226C141.211 68.7854 141.47 68.8874 141.698 69.0286C141.933 69.1699 142.122 69.3542 142.263 69.5818C142.404 69.8015 142.475 70.0722 142.475 70.3939V73.5245ZM141.133 71.8297C140.929 71.9631 140.678 72.0455 140.38 72.0769C140.082 72.1004 139.783 72.1396 139.485 72.1946C139.344 72.2181 139.207 72.2534 139.073 72.3005C138.94 72.3397 138.822 72.3986 138.72 72.477C138.618 72.5476 138.536 72.6457 138.473 72.7712C138.418 72.8889 138.391 73.0341 138.391 73.2067C138.391 73.3558 138.434 73.4813 138.52 73.5833C138.607 73.6853 138.709 73.7677 138.826 73.8305C138.952 73.8854 139.085 73.9246 139.226 73.9482C139.375 73.9717 139.509 73.9835 139.627 73.9835C139.776 73.9835 139.936 73.9639 140.109 73.9246C140.282 73.8854 140.443 73.8187 140.592 73.7245C140.749 73.6304 140.878 73.5127 140.98 73.3715C141.082 73.2224 141.133 73.0419 141.133 72.8301V71.8297ZM148.026 70.8293C147.971 70.4527 147.818 70.1702 147.567 69.9819C147.324 69.7858 147.014 69.6877 146.637 69.6877C146.464 69.6877 146.28 69.7191 146.084 69.7819C145.888 69.8368 145.707 69.9466 145.543 70.1114C145.378 70.2683 145.24 70.4919 145.131 70.7822C145.021 71.0647 144.966 71.4374 144.966 71.9003C144.966 72.1514 144.993 72.4025 145.048 72.6535C145.111 72.9046 145.205 73.1282 145.331 73.3244C145.464 73.5205 145.633 73.6814 145.837 73.8069C146.041 73.9246 146.288 73.9835 146.578 73.9835C146.971 73.9835 147.292 73.8619 147.543 73.6186C147.802 73.3754 147.963 73.0341 148.026 72.5947H149.368C149.242 73.3872 148.94 73.9952 148.461 74.4189C147.991 74.8348 147.363 75.0427 146.578 75.0427C146.1 75.0427 145.676 74.9642 145.307 74.8073C144.946 74.6425 144.64 74.4229 144.389 74.1482C144.138 73.8658 143.946 73.5323 143.812 73.1479C143.687 72.7634 143.624 72.3476 143.624 71.9003C143.624 71.4452 143.687 71.0176 143.812 70.6175C143.938 70.2173 144.126 69.8721 144.377 69.5818C144.628 69.2836 144.938 69.0522 145.307 68.8874C145.684 68.7148 146.123 68.6285 146.625 68.6285C146.978 68.6285 147.312 68.6756 147.626 68.7697C147.947 68.856 148.23 68.9894 148.473 69.1699C148.724 69.3503 148.928 69.5779 149.085 69.8525C149.242 70.1271 149.336 70.4527 149.368 70.8293H148.026ZM154.636 71.3001C154.62 71.0882 154.573 70.8842 154.495 70.6881C154.424 70.4919 154.322 70.3232 154.189 70.182C154.063 70.0329 153.906 69.9152 153.718 69.8289C153.538 69.7348 153.334 69.6877 153.106 69.6877C152.871 69.6877 152.655 69.7309 152.459 69.8172C152.271 69.8956 152.106 70.0094 151.965 70.1585C151.831 70.2997 151.721 70.4684 151.635 70.6646C151.557 70.8607 151.513 71.0726 151.506 71.3001H154.636ZM151.506 72.1828C151.506 72.4182 151.537 72.6457 151.6 72.8654C151.67 73.0851 151.772 73.2773 151.906 73.4421C152.039 73.6069 152.208 73.7402 152.412 73.8422C152.616 73.9364 152.859 73.9835 153.141 73.9835C153.534 73.9835 153.848 73.9011 154.083 73.7363C154.326 73.5637 154.507 73.3087 154.624 72.9713H155.895C155.825 73.3009 155.703 73.5951 155.531 73.854C155.358 74.1129 155.15 74.3326 154.907 74.5131C154.664 74.6857 154.389 74.8152 154.083 74.9015C153.785 74.9956 153.471 75.0427 153.141 75.0427C152.663 75.0427 152.239 74.9642 151.87 74.8073C151.502 74.6504 151.188 74.4307 150.929 74.1482C150.678 73.8658 150.486 73.5284 150.352 73.1361C150.227 72.7438 150.164 72.3122 150.164 71.8415C150.164 71.4099 150.231 71.0019 150.364 70.6175C150.505 70.2252 150.701 69.8839 150.952 69.5936C151.211 69.2954 151.521 69.06 151.882 68.8874C152.243 68.7148 152.651 68.6285 153.106 68.6285C153.585 68.6285 154.012 68.7305 154.389 68.9345C154.773 69.1306 155.091 69.3935 155.342 69.723C155.593 70.0526 155.774 70.4331 155.884 70.8646C156.001 71.2883 156.033 71.7277 155.978 72.1828H151.506ZM157.104 73.2891H158.74V74.8779H157.104V73.2891Z" fill="#DFE0E5"/>
</g>
<defs>
<filter id="filter0_d_3109_5725" x="0" y="0" width="220" height="85.126" filterUnits="userSpaceOnUse" color-interpolation-filters="sRGB">
<feFlood flood-opacity="0" result="BackgroundImageFix"/>
<feColorMatrix in="SourceAlpha" type="matrix" values="0 0 0 0 0 0 0 0 0 0 0 0 0 0 0 0 0 0 127 0" result="hardAlpha"/>
<feOffset dy="4"/>
<feGaussianBlur stdDeviation="2"/>
<feComposite in2="hardAlpha" operator="out"/>
<feColorMatrix type="matrix" values="0 0 0 0 0 0 0 0 0 0 0 0 0 0 0 0 0 0 0.25 0"/>
<feBlend mode="normal" in2="BackgroundImageFix" result="effect1_dropShadow_3109_5725"/>
<feBlend mode="normal" in="SourceGraphic" in2="effect1_dropShadow_3109_5725" result="shape"/>
</filter>
</defs>
</svg>
