<svg width="32" height="32" viewBox="0 0 32 32" fill="none" xmlns="http://www.w3.org/2000/svg">
<path d="M16.0002 10.2498C14.863 10.2498 13.7513 10.5871 12.8057 11.2189C11.8601 11.8507 11.1231 12.7487 10.6879 13.7994C10.2527 14.8501 10.1388 16.0062 10.3607 17.1216C10.5826 18.237 11.1302 19.2615 11.9343 20.0657C12.7385 20.8698 13.7631 21.4175 14.8784 21.6393C15.9938 21.8612 17.15 21.7473 18.2006 21.3121C19.2513 20.8769 20.1493 20.1399 20.7812 19.1944C21.413 18.2488 21.7502 17.1371 21.7502 15.9998C21.7482 14.4754 21.1418 13.0141 20.0639 11.9362C18.986 10.8583 17.5246 10.2518 16.0002 10.2498ZM16.0002 20.2498C15.1596 20.2498 14.3379 20.0006 13.639 19.5336C12.9401 19.0666 12.3954 18.4028 12.0737 17.6262C11.7521 16.8496 11.6679 15.9951 11.8319 15.1707C11.9959 14.3463 12.4006 13.589 12.995 12.9946C13.5894 12.4003 14.3467 11.9955 15.1711 11.8315C15.9955 11.6675 16.85 11.7517 17.6266 12.0733C18.4032 12.395 19.067 12.9397 19.534 13.6387C20.001 14.3376 20.2502 15.1593 20.2502 15.9998C20.2502 17.127 19.8024 18.208 19.0054 19.005C18.2084 19.8021 17.1274 20.2498 16.0002 20.2498ZM26.7502 16.3548C26.7577 16.1186 26.7577 15.8811 26.7502 15.6448L28.6665 13.2498C28.7397 13.1582 28.7904 13.0506 28.8145 12.9357C28.8386 12.8209 28.8354 12.702 28.8052 12.5886C28.5054 11.4587 28.0565 10.3737 27.4702 9.36233C27.412 9.25968 27.3304 9.17222 27.232 9.10706C27.1336 9.0419 27.0212 9.00088 26.904 8.98733L23.8477 8.64858C23.6869 8.47608 23.5202 8.30941 23.3477 8.14858L23.0077 5.09108C22.9942 4.97385 22.9531 4.86147 22.888 4.76308C22.8228 4.66468 22.7354 4.58306 22.6327 4.52483C21.6226 3.94028 20.5394 3.49221 19.4115 3.19233C19.2978 3.16263 19.1787 3.16005 19.0639 3.1848C18.949 3.20955 18.8416 3.26094 18.7502 3.33483L16.3502 5.25608C16.114 5.24858 15.8765 5.24858 15.6402 5.25608L13.2502 3.33358C13.1585 3.26034 13.0509 3.20962 12.9361 3.18553C12.8212 3.16143 12.7024 3.16462 12.589 3.19483C11.4591 3.49464 10.3741 3.94359 9.36271 4.52983C9.26006 4.58806 9.1726 4.66968 9.10744 4.76808C9.04228 4.86647 9.00126 4.97885 8.98771 5.09608L8.65396 8.15233C8.48146 8.314 8.31479 8.48066 8.15396 8.65233L5.09521 8.99983C4.97798 9.01338 4.8656 9.0544 4.76721 9.11956C4.66881 9.18472 4.58719 9.27218 4.52896 9.37483C3.94441 10.385 3.49634 11.4682 3.19646 12.5961C3.16747 12.7084 3.16492 12.8258 3.18899 12.9393C3.21307 13.0527 3.26312 13.159 3.33521 13.2498L5.25646 15.6498C5.24896 15.8861 5.24896 16.1236 5.25646 16.3598L3.33396 18.7561C3.26072 18.8478 3.21 18.9554 3.18591 19.0702C3.16181 19.185 3.165 19.3039 3.19521 19.4173C3.49555 20.5451 3.94448 21.6279 4.53021 22.6373C4.58844 22.74 4.67006 22.8274 4.76846 22.8926C4.86685 22.9578 4.97923 22.9988 5.09646 23.0123L8.15271 23.3511C8.31438 23.5236 8.48104 23.6902 8.65271 23.8511L9.00021 26.9048C9.01376 27.0221 9.05478 27.1344 9.11994 27.2328C9.1851 27.3312 9.27256 27.4129 9.37521 27.4711C10.3854 28.0556 11.4685 28.5037 12.5965 28.8036C12.7099 28.8338 12.8287 28.837 12.9436 28.8129C13.0584 28.7888 13.166 28.7381 13.2577 28.6648L15.6452 26.7498C15.8815 26.7573 16.119 26.7573 16.3552 26.7498L18.7565 28.6723C18.8896 28.7786 19.0549 28.8363 19.2252 28.8361C19.2902 28.8358 19.3548 28.8274 19.4177 28.8111C20.5455 28.5107 21.6283 28.0618 22.6377 27.4761C22.7404 27.4179 22.8278 27.3362 22.893 27.2378C22.9581 27.1394 22.9992 27.0271 23.0127 26.9098L23.3515 23.8536C23.524 23.6927 23.6906 23.5261 23.8515 23.3536L26.909 23.0136C27.0262 23 27.1386 22.959 27.237 22.8938C27.3354 22.8287 27.417 22.7412 27.4752 22.6386C28.06 21.6285 28.5081 20.5453 28.8077 19.4173C28.8379 19.3039 28.8411 19.185 28.817 19.0702C28.7929 18.9554 28.7422 18.8478 28.669 18.7561L26.7502 16.3548ZM26.3627 21.5586L23.4077 21.8873C23.2231 21.9086 23.0529 21.9977 22.9302 22.1373C22.6832 22.4156 22.4198 22.679 22.1415 22.9261C22.0018 23.0488 21.9127 23.2189 21.8915 23.4036L21.5627 26.3573C20.8709 26.7263 20.1439 27.0253 19.3927 27.2498L17.0715 25.3923C16.9383 25.2861 16.773 25.2284 16.6027 25.2286H16.5577C16.1863 25.2498 15.8141 25.2498 15.4427 25.2286C15.2572 25.2172 15.0742 25.2751 14.929 25.3911L12.609 27.2498C11.8584 27.024 11.1323 26.7238 10.4415 26.3536L10.1127 23.4011C10.0914 23.2164 10.0023 23.0463 9.86271 22.9236C9.5844 22.6765 9.32102 22.4131 9.07396 22.1348C8.95127 21.9952 8.78111 21.9061 8.59646 21.8848L5.64271 21.5561C5.27415 20.8662 4.97517 20.1414 4.75021 19.3923L6.60771 17.0711C6.72365 16.9259 6.78156 16.7428 6.77021 16.5573C6.74896 16.186 6.74896 15.8137 6.77021 15.4423C6.78156 15.2569 6.72365 15.0738 6.60771 14.9286L4.75021 12.6086C4.97602 11.858 5.27626 11.1319 5.64646 10.4411L8.59896 10.1123C8.78361 10.091 8.95377 10.002 9.07646 9.86233C9.32352 9.58402 9.5869 9.32064 9.86521 9.07358C10.0048 8.95089 10.0939 8.78073 10.1152 8.59608L10.444 5.64233C11.1338 5.27377 11.8586 4.97479 12.6077 4.74983L14.929 6.60733C15.0742 6.72327 15.2572 6.78118 15.4427 6.76983C15.8141 6.74858 16.1863 6.74858 16.5577 6.76983C16.7432 6.78118 16.9263 6.72327 17.0715 6.60733L19.3915 4.74983C20.142 4.97564 20.8681 5.27588 21.559 5.64608L21.8877 8.60108C21.909 8.78573 21.9981 8.95589 22.1377 9.07858C22.416 9.32564 22.6794 9.58902 22.9265 9.86733C23.0492 10.007 23.2193 10.096 23.404 10.1173L26.3577 10.4461C26.7261 11.1351 27.0251 11.8591 27.2502 12.6073L25.3927 14.9286C25.2768 15.0738 25.2189 15.2569 25.2302 15.4423C25.2515 15.8137 25.2515 16.186 25.2302 16.5573C25.2189 16.7428 25.2768 16.9259 25.3927 17.0711L27.2502 19.3911C27.0252 20.1415 26.7258 20.8676 26.3565 21.5586H26.3627Z" fill="#343330"/>
</svg>
