<svg width="288" height="288" viewBox="0 0 288 288" fill="none" xmlns="http://www.w3.org/2000/svg">
<path fill-rule="evenodd" clip-rule="evenodd" d="M143.999 105.139C180.517 105.139 215.289 110.125 246.688 119.053C257.695 122.163 268.268 125.798 278.354 129.9H278.373C279.845 137.324 280.556 145.005 280.556 152.845C280.556 154.093 280.556 155.334 280.447 156.582C271.775 150.451 262.297 146.355 252.319 144.64C248.883 144.07 245.452 143.757 241.906 143.757C196.607 143.757 159.436 192.972 155.347 255.788C155.071 259.628 154.963 263.475 154.963 267.366C154.963 272.454 155.18 277.485 155.615 282.419C151.801 282.784 147.929 282.938 144.006 282.938C140.083 282.938 136.211 282.784 132.396 282.419C132.832 277.491 133.049 272.454 133.049 267.366C133.049 263.469 132.94 259.628 132.665 255.788C128.575 192.972 91.4039 143.757 46.0537 143.757C42.5082 143.757 39.0198 144.07 35.6406 144.64C25.612 146.355 16.1782 150.457 7.5127 156.582C7.40392 155.334 7.4043 154.093 7.4043 152.845C7.4043 145.005 8.11492 137.324 9.58691 129.9C19.6668 125.798 30.246 122.169 41.2539 119.053C72.7034 110.125 107.481 105.139 143.999 105.139ZM172.5 124.127C157.446 109.073 133.04 109.073 117.986 124.127C102.933 139.181 102.933 163.587 117.986 178.641C133.04 193.694 157.446 193.694 172.5 178.641C187.554 163.587 187.554 139.181 172.5 124.127Z" fill="#DDDDDD"/>
<path d="M168 151.5C168 163.927 157.927 174 145.5 174C133.073 174 123 163.927 123 151.5C123 139.073 133.073 129 145.5 129C157.927 129 168 139.073 168 151.5Z" fill="#DDDDDD"/>
<path d="M285.644 118.605C273.747 51.1999 214.848 0 144 0C73.1519 0 14.2528 51.1999 2.2976 118.605C0.748799 126.822 0 135.328 0 144C0 145.376 0 146.758 0.1152 148.134C2.1248 221.625 59.3023 281.388 131.763 287.424C135.782 287.827 139.865 288 144 288C148.134 288 152.217 287.827 156.237 287.424C228.697 281.388 285.811 221.632 287.827 148.134C287.942 146.758 287.942 145.376 287.942 144C287.942 135.321 287.193 126.816 285.644 118.605ZM258.579 144C258.579 203.302 213.587 251.968 155.949 257.945C151.981 258.348 148.019 258.579 144 258.579C139.981 258.579 135.955 258.348 132.045 257.945C74.3551 251.968 29.3632 203.296 29.3632 144C29.3632 140.953 29.4784 137.907 29.7664 134.918C30.5152 125.094 32.5248 115.552 35.6863 106.592C51.1423 61.6575 93.7791 29.4208 144 29.4208C194.221 29.4208 236.8 61.6575 252.256 106.592C255.417 115.558 257.427 125.094 258.176 134.918C258.464 137.907 258.579 140.953 258.579 144Z" fill="#DDDDDD"/>
<g opacity="0.2">
<path d="M35.4293 107.393C34.7509 109.089 34.0405 110.766 33.4453 112.5C30.2837 121.467 28.2741 131.003 27.5253 140.827C27.2373 143.815 27.1221 146.862 27.1221 149.908C27.1221 209.211 72.114 257.876 129.81 263.854C133.714 264.257 137.739 264.487 141.765 264.487C145.791 264.487 149.752 264.257 153.714 263.854C198.335 259.226 235.269 228.961 249.727 188.039C233.919 225.946 198.399 253.55 155.954 257.953C151.986 258.356 148.024 258.586 144.005 258.586C139.986 258.586 135.96 258.356 132.05 257.953C74.3604 251.975 29.3685 203.303 29.3685 144.007C29.3685 140.961 29.4837 137.915 29.7717 134.926C30.4949 125.39 32.4341 116.135 35.4357 107.399L35.4293 107.393Z" fill="#DDDDDD"/>
<path d="M285.644 118.605C273.746 51.1999 214.847 0 143.999 0C81.1192 0 27.7369 40.3647 8.14648 96.5503C29.3305 43.4751 81.1192 5.90719 141.765 5.90719C212.613 5.90719 271.512 57.1071 283.41 124.512C284.959 132.729 285.708 141.235 285.708 149.907C285.708 151.289 285.708 152.665 285.592 154.048C285.144 170.4 281.836 186.016 276.37 200.569C283.276 184.397 287.32 166.713 287.832 148.147C287.948 146.771 287.948 145.389 287.948 144.013C287.948 135.334 287.199 126.829 285.65 118.617L285.644 118.605Z" fill="#DDDDDD"/>
</g>
</svg>
